PathFileType	4	(X/Y/Z)	7_2_98_p1_0-642_filt_butterworth.trc
DataRate	CameraRate	NumFrames	NumMarkers	Units	OrigDataRate	OrigDataStartFrame	OrigNumFrames
55.0	55.0	5	27	m	55.0	401	642
Frame#	Time	RHip			RKnee			RAnkle			RBigToe			RSmallToe			RHeel			LHip			LKnee			LAnkle			LBigToe			LSmallToe			LHeel			Neck			Head			Nose			RShoulder			RElbow			RWrist			RThumb			RIndex			RPinky			LShoulder			LElbow			LWrist			LThumb			LIndex			LPinky			
		X1	Y1	Z1	X2	Y2	Z2	X3	Y3	Z3	X4	Y4	Z4	X5	Y5	Z5	X6	Y6	Z6	X7	Y7	Z7	X8	Y8	Z8	X9	Y9	Z9	X10	Y10	Z10	X11	Y11	Z11	X12	Y12	Z12	X13	Y13	Z13	X14	Y14	Z14	X15	Y15	Z15	X16	Y16	Z16	X17	Y17	Z17	X18	Y18	Z18	X19	Y19	Z19	X20	Y20	Z20	X21	Y21	Z21	X22	Y22	Z22	X23	Y23	Z23	X24	Y24	Z24	X25	Y25	Z25	X26	Y26	Z26	X27	Y27	Z27	
401	7.290909090909091	0.27608276750896676	0.3291378927453591	1.1363488990492667	0.27945192284713327	0.29714527870335145	1.5884702980875467	0.2701708436194923	0.32274694913799473	2.055086896627759	0.2663161889029029	0.09841801932897884	2.0016567739836186	0.3303071750349497	0.14188756736907276	2.0103802542157005	0.2544570896342053	0.35018016103097516	2.121671674872389	0.06243663474518868	0.33026346076690216	1.1528603445067114	0.08305823601412436	0.2807577946766798	1.5827865164106443	0.09710737284986387	0.2755197804252755	2.007071698667016	0.11406818655091511	0.09924163759155129	2.0098730583816717	0.047352561066600206	0.14237516175751497	2.006725971791516	0.10495898099873732	0.3463925978675674	2.098311083521578	0.1542133362930835	0.4030967283100161	0.6145620328817758	0.15651955678681895	0.4171235722057233	0.39617605476655593	0.18252214412261109	0.3307447936691447	0.5031171427765102	0.2933721448131171	0.4554701736742231	0.6931144305082869	0.4471581932625164	0.36957042798214473	0.8142692306924986	0.46384441041434793	0.15339569686191723	0.7930692548849869	0.4617769515260285	-0.013689225041637736	0.7525704911793302	0.4673471957136206	-0.02131687265506472	0.7567470981338105	0.46962539365129163	0.009179699374151347	0.8022121168005927	0.010458477964407433	0.3332587322083197	0.6818709645585962	-0.06997888631073929	0.22729839493571913	0.879664025382158	0.07746587490477375	0.028489151483122643	0.8444955218203012	0.16510489917429486	0.0017525849285224525	0.8148556351544101	0.17219042410482477	-0.013580241183486351	0.8361639426535592	0.15274827886946873	-0.005854567252822976	0.8844541246508286
402	7.309090909090909	0.27664641025992526	0.3277217522164373	1.139421196285565	0.2790946376880858	0.29691040001449276	1.587135480892615	0.2701235705905522	0.32275328438853884	2.0550278347775484	0.2662729465921934	0.09838973238388425	2.0016148301146313	0.33032823508872405	0.14196772488138334	2.0104726938223174	0.2543084180247004	0.35001075676148863	2.1212127768645717	0.06356840387297477	0.3301924227425015	1.152554676697457	0.08280766359918076	0.2806034202859388	1.5812938088689046	0.09701113195546983	0.27548441285753933	2.0075128394696105	0.11392046794289137	0.09927209546180152	2.009968294135613	0.04732934057390315	0.1423475114442381	2.00676358554085	0.10555101635377828	0.3448957685161686	2.0962430547929967	0.1528348492470052	0.40616008247806107	0.6153628398873506	0.15534163832029482	0.4132282809321889	0.3949289821852119	0.18144316585026268	0.3301746429693897	0.5029982173922546	0.2950607996769486	0.45446063834489014	0.6934190632229759	0.44504241837599323	0.368348909324669	0.821895064916793	0.4675330255266109	0.157668548232996	0.799018921745012	0.48012823587722087	0.0057141090345475525	0.7529009825786066	0.4860989750275093	-0.015205959213412609	0.7560096331586174	0.4742364197128832	0.005758117127517723	0.7981291336141523	0.010513147205110103	0.3333629930330463	0.6818355091477251	-0.0787699504930503	0.2445569107685538	0.8811093370706409	0.06572291087833287	0.030790910400043912	0.8403223159248844	0.15604603119887972	0.0023961237833932192	0.8156352735879904	0.15840552145455422	-0.02377078614272083	0.8310501707824949	0.13119285813244366	-0.006968073736018508	0.8841754450440789
403	7.327272727272727	0.2772159340793794	0.3279274595476607	1.141387647899944	0.2786689486372249	0.2965876347170306	1.585167742460763	0.27012323380013037	0.32274294611710425	2.054944854529875	0.2663117923749276	0.09836303312933423	2.0016313218012414	0.3304398977793789	0.14210943995927522	2.0105782298709567	0.25428295725387745	0.3499191816490223	2.1208811043974327	0.06331605856866243	0.32851910665936085	1.1511815206222051	0.08244056786051127	0.2803697595550178	1.5792109160375543	0.09713053819560143	0.27556434343490926	2.0069071306106734	0.11374606010952197	0.09931861696645773	2.010016918976687	0.04730622948445317	0.14236075477601398	2.0068400788356286	0.10674632456339603	0.34247690486881266	2.095505797256765	0.1503436265459175	0.41014396969855194	0.616361604888398	0.1551073059831305	0.4103870008344226	0.3937166039771469	0.18107847649604555	0.329922658212447	0.502940523115467	0.2959093153673065	0.4533240401002048	0.693362861895711	0.4428994293903029	0.36681218815177735	0.8312104931437201	0.47254749607098134	0.16032369272923502	0.8052830234965795	0.5024270366806021	0.027763736679352724	0.7525219778842314	0.5091823135313615	-0.00585004971855399	0.7542696475153863	0.48169549453359867	-0.0008033601591325712	0.7889278905888915	0.010532481082494107	0.33347708384116237	0.6817691907575599	-0.0846598940335146	0.258086595205148	0.8810787438571535	0.04962485170474537	0.0443245778460099	0.840096637677506	0.13848852052908422	0.0015678066942093891	0.8175773996906482	0.139304567844231	-0.03512084144492219	0.8260316489410324	0.10584422640800761	-0.009594501210109263	0.8836187588806802
404	7.345454545454546	0.2781216516264396	0.32845260141736166	1.1421926780629799	0.278394140726354	0.2963716844722822	1.5836309647348696	0.2701456842297047	0.3227279439592309	2.0548001272002585	0.2664126496211275	0.09820530843025921	2.0015557694136	0.33050424229147723	0.1421228941895232	2.010291375646408	0.25434464885310215	0.34993062302210337	2.120892520335681	0.06208873082729674	0.32479918329771595	1.1484523741997195	0.08213042856099396	0.28018943027463394	1.577672933273223	0.09742863653067366	0.2757213599973733	2.005479975470441	0.11358405012052478	0.09931239418119077	2.0100308066996346	0.04729789667145889	0.14240834812017422	2.0069651815895133	0.10753535411846131	0.3412664482043151	2.0959135624235063	0.1477943705258144	0.4129108719108523	0.6170900556506844	0.1552583306240497	0.4092482921099339	0.3935207833248701	0.18110753362999293	0.3298959885441109	0.5029504740811569	0.29600017492182557	0.4525083501388301	0.693135092438757	0.44232110403022257	0.3651419870301088	0.8393002530243924	0.47736135494484333	0.1613480415384156	0.810422421017881	0.5186831698326646	0.04214767440821019	0.7515309373958236	0.52574005349662	0.0023214272379583796	0.7532123133572225	0.49049156939634003	-0.00769896947717898	0.7805559136539983	0.010160748322023301	0.33333659651614855	0.6816352487079653	-0.08689464736872955	0.2656684373328423	0.8794247867312197	0.03412939232742728	0.06046217531620926	0.8427953812492173	0.1162504456301353	-0.00014495121575947972	0.820119545198113	0.1227101862466774	-0.0374971551444688	0.8244564035808204	0.08932085503287522	-0.012202859655082412	0.8828857229401449
405	7.363636363636363	0.2789526009928419	0.3286767500370049	1.1424948253963128	0.27832537626545	0.2963221412752161	1.5830549768859377	0.2700990192710687	0.3226936338834142	2.054674708867962	0.26635795660602785	0.09788467125646383	2.0012470267749713	0.3301549668487656	0.14194685237231883	2.00916372676678	0.25435357080924853	0.34996795669040853	2.12120203890727	0.06074171157131472	0.32030060232391794	1.1455102695068768	0.08204129057210768	0.2801671368459848	1.5772095302571165	0.09773440475971364	0.2758675738865004	2.0040517824199573	0.11345378318176988	0.0992630103708265	2.0100160609604787	0.047287401361454054	0.1424613358330995	2.007000039456873	0.10772291797341749	0.34126499991632303	2.0964244855051453	0.1462796413205625	0.41388654345032433	0.6174091869288889	0.15539940515529369	0.4089855066548546	0.39431744248468137	0.18118297506194103	0.3299270590681452	0.5029907275521479	0.2958559789289356	0.45218290128089017	0.6928420744897282	0.44288439525135237	0.3637110806458263	0.8440240633985181	0.4818762767178198	0.1611187155195853	0.8136944111944691	0.5259368559065275	0.04455074845796213	0.7497126709475656	0.5325049536322332	0.0046066543661078645	0.7526413773307733	0.4982396528286555	-0.011472846769978373	0.7782064509198141	0.009082455293710344	0.3326941054750405	0.6814221748834958	-0.08716927674542524	0.26981402319121983	0.8773809980786628	0.023600426589726768	0.06971976925446295	0.8452783940805311	0.09720757377226824	-0.0015124912914298134	0.8215659302132369	0.11995557921101119	-0.03308171800335317	0.8228472509622318	0.08540695648760928	-0.012788817882117564	0.8823030314976625
